# xmcd
#
# Track frame offsets: 
#        150
#        21559
#        34001
#        50824
#        64770
#        76153
#        86733
#        108892
#        128167
#        144091
#        156309
#        166821
#        178433
#        196141
#        210839
#        226543
#        247793
#        260109
#        273637
#
# Disc length: 3915 seconds
#
# Revision: 0
# Processed by: cddbd v1.5.2PL0 Copyright (c) Steve Scherf et al.
# Submitted via: ExactAudioCopy v0.99pb3
#
DISCID=000f4913
DTITLE=Johnny Winter - Raised on Blues
DYEAR=2008
DGENRE=Blues
TTITLE0=Going Down
TTITLE1=Leavin' Blues
TTITLE2=Kind Hearted Woman
TTITLE3=Low Down Gal Of Mine
TTITLE4=Avocado Green
TTITLE5=Thirty-Two, Twenty Blues
TTITLE6=Look Up
TTITLE7=Prodigal Son
TTITLE8=Out on a Limb
TTITLE9=Parchman Farm
TTITLE10=Out of Sight
TTITLE11=Bad News
TTITLE12=Stranger Blues
TTITLE13=Let The Music Play
TTITLE14=Self Destruction Blues
TTITLE15=Raised on a Rock
TTITLE16=Rock and Roll People
TTITLE17=Golden Days of Rock and Roll
TTITLE18=Hoochie Koo
EXTD=
EXTT0=
EXTT1=
EXTT2=
EXTT3=
EXTT4=
EXTT5=
EXTT6=
EXTT7=
EXTT8=
EXTT9=
EXTT10=
EXTT11=
EXTT12=
EXTT13=
EXTT14=
EXTT15=
EXTT16=
EXTT17=
EXTT18=
PLAYORDER=
